<?xml version="1.0" encoding="UTF-8"?>
<svg version="1.1" viewBox="0 0 450 450" xmlns="http://www.w3.org/2000/svg" xmlns:xlink="http://www.w3.org/1999/xlink">
   <defs>
      <linearGradient id="a" x1="231.33" x2="544.66" y1="101.51" y2="424.6" gradientTransform="matrix(1 0 0 1.1027 -116.48 -20.188)" gradientUnits="userSpaceOnUse">
         <stop stop-color="#bdf47d" offset="0" />
         <stop stop-color="#8cce41" offset="1" />
      </linearGradient>
      <linearGradient id="b" x1="231.33" x2="231.33" y1="427.98" y2="381.67" gradientTransform="matrix(1 0 0 1.1027 -116.48 15.324)" gradientUnits="userSpaceOnUse">
         <stop stop-color="#f0f0f0" offset="0" />
         <stop stop-color="#c8c8c8" offset="1" />
      </linearGradient>
      <filter id="c" x="-.075" y="-.060681" width="1.15" height="1.1214" color-interpolation-filters="sRGB">
         <feFlood flood-color="rgb(0,0,0)" flood-opacity=".49804" result="flood" />
         <feComposite in="flood" in2="SourceGraphic" operator="in" result="composite1" />
         <feGaussianBlur in="composite1" result="blur" stdDeviation="10" />
         <feOffset dx="0" dy="0" result="offset" />
         <feComposite in="SourceGraphic" in2="offset" result="composite2" />
      </filter>
   </defs>
   <g transform="translate(-91.606 -64.002)" stroke-width="0">
      <g transform="translate(41.757)" filter="url(#c)">
         <rect x="114.85" y="127.26" width="320" height="360" ry="20" fill="url(#b)" />
         <rect x="114.85" y="91.752" width="320" height="350" ry="20" fill="url(#a)" />
      </g>
      <g transform="translate(41.106)" fill="#4e9305">
         <rect x="170.81" y="167.11" width="208.88" height="25.866" rx="7" ry="7" />
         <rect x="170.98" y="235.6" width="208.88" height="25.866" rx="7" ry="7" />
         <rect x="171.14" y="304.09" width="208.88" height="25.866" rx="7" ry="7" />
         <rect x="171.3" y="372.58" width="208.88" height="25.866" rx="7" ry="7" />
      </g>
      <g transform="translate(41.53)" fill="#4e9305">
         <rect x="153.12" y="66.74" width="36" height="52" ry="18" />
         <rect x="222.43" y="66.74" width="36" height="52" ry="18" />
         <rect x="291.73" y="66.74" width="36" height="52" ry="18" />
         <rect x="361.03" y="66.74" width="36" height="52" ry="18" />
      </g>
   </g>
</svg>